<?xml version="1.0" encoding="utf-8"?>
<svg version="1.1" width="985px" height="1232px" style="shape-rendering:geometricPrecision; text-rendering:geometricPrecision; image-rendering:optimizeQuality; fill-rule:evenodd; clip-rule:evenodd" xmlns="http://www.w3.org/2000/svg">
  <g>
    <path style="opacity:1" fill="#d3d6e4" d="M 897.5,473.5 C 894.105,451.914 889.105,430.58 882.5,409.5C 925.476,364.156 938.976,311.156 923,250.5C 898.957,186.812 853.124,149.978 785.5,140C 710.167,139.667 634.833,139.333 559.5,139C 551.462,135.757 548.629,129.923 551,121.5C 561,104.167 571,86.8333 581,69.5C 583.967,61.9382 581.8,56.4382 574.5,53C 520.417,52.0089 466.417,52.3422 412.5,54C 407.729,57.3143 405.896,61.8143 407,67.5C 417.333,85.5 427.667,103.5 438,121.5C 440.371,129.923 437.538,135.757 429.5,139C 354.167,139.333 278.833,139.667 203.5,140C 141.84,149.048 97.6733,181.548 71,237.5C 52.124,287.186 56.2907,334.852 83.5,380.5C 81.3443,386.804 78.6776,392.804 75.5,398.5C 41.6389,348.603 34.1389,294.937 53,237.5C 78.5566,175.955 124.057,138.455 189.5,125C 194.143,124.17 198.81,123.503 203.5,123C 275.5,122.667 347.5,122.333 419.5,122C 411.667,108.833 403.833,95.6667 396,82.5C 384.822,61.3664 389.989,45.8664 411.5,36C 466.167,35.3333 520.833,35.3333 575.5,36C 593.633,41.4904 601.133,53.657 598,72.5C 589.034,88.9612 579.867,105.295 570.5,121.5C 640.164,122.333 709.831,122.833 779.5,123C 842.515,128.759 890.682,158.259 924,211.5C 951.443,262.69 953.777,315.024 931,368.5C 922.35,386.471 911.35,402.804 898,417.5C 897.5,436.164 897.333,454.83 897.5,473.5 Z"/>
  </g>
  <g>
    <path style="opacity:1" fill="#283a75" d="M 882.5,409.5 C 877.263,395.025 870.93,381.025 863.5,367.5C 857.488,355.461 850.488,344.127 842.5,333.5C 819.811,300.478 791.811,272.811 758.5,250.5C 711.367,218.437 659.7,196.437 603.5,184.5C 499.517,160.559 397.184,166.392 296.5,202C 226.82,227.406 167.986,268.239 120,324.5C 106.067,342.037 93.9005,360.704 83.5,380.5C 56.2907,334.852 52.124,287.186 71,237.5C 97.6733,181.548 141.84,149.048 203.5,140C 278.833,139.667 354.167,139.333 429.5,139C 437.538,135.757 440.371,129.923 438,121.5C 427.667,103.5 417.333,85.5 407,67.5C 405.896,61.8143 407.729,57.3143 412.5,54C 466.417,52.3422 520.417,52.0089 574.5,53C 581.8,56.4382 583.967,61.9382 581,69.5C 571,86.8333 561,104.167 551,121.5C 548.629,129.923 551.462,135.757 559.5,139C 634.833,139.333 710.167,139.667 785.5,140C 853.124,149.978 898.957,186.812 923,250.5C 938.976,311.156 925.476,364.156 882.5,409.5 Z"/>
  </g>
  <g>
    <path style="opacity:1" fill="#4e71e4" d="M 444.5,81.5 C 451,80.4987 453.5,83.1653 452,89.5C 448.255,93.5661 444.922,93.2327 442,88.5C 441.333,87.1667 441.333,85.8333 442,84.5C 443.045,83.6266 443.878,82.6266 444.5,81.5 Z"/>
  </g>
  <g>
    <path style="opacity:1" fill="#4d6fe1" d="M 507.5,110.5 C 508.931,110.881 509.764,111.881 510,113.5C 510.735,117.813 511.235,122.147 511.5,126.5C 532.809,128.175 532.809,129.841 511.5,131.5C 509.505,152.826 507.505,152.826 505.5,131.5C 501.818,131.665 498.152,131.499 494.5,131C 492.616,130.784 490.949,130.117 489.5,129C 494.662,127.195 499.996,126.362 505.5,126.5C 505.518,121.077 506.185,115.744 507.5,110.5 Z"/>
  </g>
  <g>
    <path style="opacity:1" fill="#4e71e4" d="M 710.5,161.5 C 716.33,161.161 718.83,163.827 718,169.5C 714.952,173.01 711.619,173.343 708,170.5C 706.93,166.858 707.764,163.858 710.5,161.5 Z"/>
  </g>
  <g>
    <path style="opacity:1" fill="#be7c26" d="M 269.5,165.5 C 275.356,165.854 277.523,168.854 276,174.5C 272.751,178.367 269.418,178.367 266,174.5C 264.98,170.553 266.147,167.553 269.5,165.5 Z"/>
  </g>
  <g>
    <path style="opacity:1" fill="#917e6d" d="M 603.5,184.5 C 676.583,216.625 727.917,270.959 757.5,347.5C 792.847,448.294 787.18,546.627 740.5,642.5C 739.83,606.116 729.164,573.116 708.5,543.5C 692.188,514.521 669.521,491.855 640.5,475.5C 634.641,478.593 628.975,481.926 623.5,485.5C 588.791,473.574 553.124,465.907 516.5,462.5C 517.348,456.692 515.015,452.858 509.5,451C 500.173,450.5 490.839,450.334 481.5,450.5C 475.612,452.256 472.612,456.256 472.5,462.5C 438.41,465.451 405.077,472.118 372.5,482.5C 375.225,423.247 350.225,380.581 297.5,354.5C 297.815,346.58 297.482,338.747 296.5,331C 253.434,320.172 211.434,323.505 170.5,341C 135.267,357.899 108.1,383.399 89,417.5C 82.845,428.809 77.5116,440.475 73,452.5C 72.235,454.066 72.4017,455.399 73.5,456.5C 69.2938,465.452 66.2938,474.785 64.5,484.5C 62.1644,482.996 60.331,480.996 59,478.5C 60.0777,450.945 65.5777,424.279 75.5,398.5C 78.6776,392.804 81.3443,386.804 83.5,380.5C 93.9005,360.704 106.067,342.037 120,324.5C 167.986,268.239 226.82,227.406 296.5,202C 397.184,166.392 499.517,160.559 603.5,184.5 Z"/>
  </g>
  <g>
    <path style="opacity:1" fill="#4e71e4" d="M 180.5,179.5 C 188.618,179.382 190.618,182.882 186.5,190C 177.412,190.426 175.412,186.926 180.5,179.5 Z"/>
  </g>
  <g>
    <path style="opacity:1" fill="#4e71e5" d="M 216.5,202.5 C 224.818,202.987 226.485,206.487 221.5,213C 214.44,214.271 211.94,211.438 214,204.5C 214.995,203.934 215.828,203.267 216.5,202.5 Z"/>
  </g>
  <g>
    <path style="opacity:1" fill="#bf7c25" d="M 720.5,203.5 C 725.406,202.306 728.406,204.139 729.5,209C 727.516,214.747 724.016,215.913 719,212.5C 717.058,209.141 717.558,206.141 720.5,203.5 Z"/>
  </g>
  <g>
    <path style="opacity:1" fill="#9f8c7a" d="M 603.5,184.5 C 659.7,196.437 711.367,218.437 758.5,250.5C 758.832,283.004 758.498,315.338 757.5,347.5C 727.917,270.959 676.583,216.625 603.5,184.5 Z"/>
  </g>
  <g>
    <path style="opacity:1" fill="#fcfcfb" d="M 596.5,245.5 C 593.167,247.833 589.833,250.167 586.5,252.5C 585.833,252.167 585.167,251.833 584.5,251.5C 579.224,241.637 572.057,239.97 563,246.5C 561.558,251.277 563.058,254.61 567.5,256.5C 572.905,258.776 578.572,260.609 584.5,262C 591.598,264.586 595.932,269.419 597.5,276.5C 598.083,291.096 591.083,299.596 576.5,302C 567.673,303.553 559.673,301.72 552.5,296.5C 549.414,293.331 547.08,289.664 545.5,285.5C 548.71,282.304 552.543,279.971 557,278.5C 561.795,289.317 569.629,292.484 580.5,288C 581.267,286.53 581.933,285.03 582.5,283.5C 583.041,280.348 582.041,277.848 579.5,276C 573.269,273.72 566.935,271.72 560.5,270C 558.308,269.074 556.308,267.907 554.5,266.5C 544.844,255.733 545.178,245.233 555.5,235C 565.138,229.746 575.138,229.08 585.5,233C 591.181,235.507 594.848,239.674 596.5,245.5 Z"/>
  </g>
  <g>
    <path style="opacity:1" fill="#fcfcfc" d="M 435.5,243.5 C 440.373,262.529 445.373,281.529 450.5,300.5C 447.167,300.5 443.833,300.5 440.5,300.5C 439.022,300.762 437.689,300.429 436.5,299.5C 435.972,297.664 435.306,295.997 434.5,294.5C 434.38,291.52 433.713,288.687 432.5,286C 426.175,285.5 419.842,285.334 413.5,285.5C 412.969,290.618 411.969,295.618 410.5,300.5C 408.167,300.5 405.833,300.5 403.5,300.5C 400.813,300.664 398.146,300.497 395.5,300C 401.589,277.812 407.755,255.645 414,233.5C 420.076,232.524 426.242,232.19 432.5,232.5C 433.267,236.327 434.267,239.994 435.5,243.5 Z"/>
  </g>
  <g>
    <path style="opacity:1" fill="#fcfbfb" d="M 485.5,247.5 C 485.985,259.164 486.485,270.83 487,282.5C 488.709,273.913 489.875,265.246 490.5,256.5C 491.924,254.485 492.59,252.152 492.5,249.5C 496.167,249.5 499.833,249.5 503.5,249.5C 505.334,260.501 507.167,271.501 509,282.5C 510.32,265.86 511.153,249.193 511.5,232.5C 515.833,232.5 520.167,232.5 524.5,232.5C 524.296,235.518 523.963,238.518 523.5,241.5C 522.309,261.178 520.975,280.844 519.5,300.5C 515.833,300.5 512.167,300.5 508.5,300.5C 506.833,300.5 505.167,300.5 503.5,300.5C 503.461,296.267 502.795,292.267 501.5,288.5C 500.381,280.17 499.215,271.837 498,263.5C 496.165,275.842 494.332,288.176 492.5,300.5C 489.167,300.5 485.833,300.5 482.5,300.5C 480.5,300.5 478.5,300.5 476.5,300.5C 474.928,277.824 473.261,255.157 471.5,232.5C 475.833,232.5 480.167,232.5 484.5,232.5C 484.179,237.695 484.513,242.695 485.5,247.5 Z"/>
  </g>
  <g>
    <path style="opacity:1" fill="#6a5a4c" d="M 440.5,300.5 C 443.833,300.5 447.167,300.5 450.5,300.5C 445.373,281.529 440.373,262.529 435.5,243.5C 435.821,241.952 436.821,241.285 438.5,241.5C 444.809,264.069 450.809,286.735 456.5,309.5C 451.5,309.5 446.5,309.5 441.5,309.5C 441.037,306.518 440.704,303.518 440.5,300.5 Z"/>
  </g>
  <g>
    <path style="opacity:1" fill="#69584a" d="M 490.5,256.5 C 489.875,265.246 488.709,273.913 487,282.5C 486.485,270.83 485.985,259.164 485.5,247.5C 485.5,245.5 485.5,243.5 485.5,241.5C 487.167,241.5 488.833,241.5 490.5,241.5C 490.5,246.5 490.5,251.5 490.5,256.5 Z"/>
  </g>
  <g>
    <path style="opacity:1" fill="#69584a" d="M 523.5,241.5 C 525.833,241.5 528.167,241.5 530.5,241.5C 528.739,264.157 527.072,286.824 525.5,309.5C 520.167,309.5 514.833,309.5 509.5,309.5C 509.492,306.455 509.159,303.455 508.5,300.5C 512.167,300.5 515.833,300.5 519.5,300.5C 520.975,280.844 522.309,261.178 523.5,241.5 Z"/>
  </g>
  <g>
    <path style="opacity:1" fill="#6a594c" d="M 584.5,251.5 C 581.015,251.955 577.348,252.121 573.5,252C 571.34,253.332 569.34,254.832 567.5,256.5C 563.058,254.61 561.558,251.277 563,246.5C 572.057,239.97 579.224,241.637 584.5,251.5 Z"/>
  </g>
  <g>
    <path style="opacity:1" fill="#685749" d="M 596.5,245.5 C 604.246,250.169 604.246,254.669 596.5,259C 594.945,260.289 593.279,260.956 591.5,261C 589.874,258.372 587.874,256.039 585.5,254C 586.056,253.617 586.389,253.117 586.5,252.5C 589.833,250.167 593.167,247.833 596.5,245.5 Z"/>
  </g>
  <g>
    <path style="opacity:1" fill="#746456" d="M 422.5,244.5 C 425.433,254.24 427.767,264.24 429.5,274.5C 425.116,274.826 420.783,274.492 416.5,273.5C 419.286,264.017 421.286,254.351 422.5,244.5 Z"/>
  </g>
  <g>
    <path style="opacity:1" fill="#4e71e4" d="M 828.5,253.5 C 836.818,253.987 838.485,257.487 833.5,264C 827,265.5 824.5,263 826,256.5C 827.045,255.627 827.878,254.627 828.5,253.5 Z"/>
  </g>
  <g>
    <path style="opacity:1" fill="#4d6fe1" d="M 124.5,259.5 C 125.966,260.347 126.8,261.68 127,263.5C 127.499,267.486 127.666,271.486 127.5,275.5C 147.403,277.405 147.403,279.405 127.5,281.5C 127.665,285.182 127.499,288.848 127,292.5C 126.71,294.044 126.044,295.377 125,296.5C 123.915,291.497 122.748,286.497 121.5,281.5C 101.754,279.056 102.087,277.056 122.5,275.5C 122.733,270.106 123.399,264.773 124.5,259.5 Z"/>
  </g>
  <g>
    <path style="opacity:1" fill="#9a8674" d="M 758.5,250.5 C 791.811,272.811 819.811,300.478 842.5,333.5C 842.5,408.833 842.5,484.167 842.5,559.5C 818.866,620.814 784.199,674.814 738.5,721.5C 737.508,721.672 736.842,721.338 736.5,720.5C 738.737,710.1 739.904,699.434 740,688.5C 740.5,673.17 740.667,657.837 740.5,642.5C 787.18,546.627 792.847,448.294 757.5,347.5C 758.498,315.338 758.832,283.004 758.5,250.5 Z"/>
  </g>
  <g>
    <path style="opacity:1" fill="#68574a" d="M 501.5,288.5 C 500.175,295.451 499.175,302.451 498.5,309.5C 493.167,309.5 487.833,309.5 482.5,309.5C 482.5,306.5 482.5,303.5 482.5,300.5C 485.833,300.5 489.167,300.5 492.5,300.5C 494.332,288.176 496.165,275.842 498,263.5C 499.215,271.837 500.381,280.17 501.5,288.5 Z"/>
  </g>
  <g>
    <path style="opacity:1" fill="#6a594b" d="M 554.5,266.5 C 556.308,267.907 558.308,269.074 560.5,270C 566.935,271.72 573.269,273.72 579.5,276C 582.041,277.848 583.041,280.348 582.5,283.5C 572.125,282.229 563.291,277.895 556,270.5C 555.209,269.255 554.709,267.922 554.5,266.5 Z"/>
  </g>
  <g>
    <path style="opacity:1" fill="#68574a" d="M 552.5,296.5 C 559.673,301.72 567.673,303.553 576.5,302C 591.083,299.596 598.083,291.096 597.5,276.5C 598.329,275.668 599.162,276.001 600,277.5C 607.252,291.145 604.085,301.645 590.5,309C 579.603,313.121 569.27,312.121 559.5,306C 556.152,303.499 553.818,300.332 552.5,296.5 Z"/>
  </g>
  <g>
    <path style="opacity:1" fill="#4e72e6" d="M 845.5,278.5 C 852.993,277.829 855.326,280.995 852.5,288C 843.411,290.174 841.078,287.007 845.5,278.5 Z"/>
  </g>
  <g>
    <path style="opacity:1" fill="#6b5a4d" d="M 434.5,294.5 C 429.5,294.5 424.5,294.5 419.5,294.5C 418.969,299.618 417.969,304.618 416.5,309.5C 411.489,309.666 406.489,309.499 401.5,309C 402.482,306.262 403.148,303.428 403.5,300.5C 405.833,300.5 408.167,300.5 410.5,300.5C 411.969,295.618 412.969,290.618 413.5,285.5C 419.842,285.334 426.175,285.5 432.5,286C 433.713,288.687 434.38,291.52 434.5,294.5 Z"/>
  </g>
  <g>
    <path style="opacity:1" fill="#fcfcfb" d="M 447.5,336.5 C 444.167,338.833 440.833,341.167 437.5,343.5C 436.833,343.167 436.167,342.833 435.5,342.5C 430.224,332.637 423.057,330.97 414,337.5C 412.558,342.277 414.058,345.61 418.5,347.5C 423.905,349.776 429.572,351.609 435.5,353C 442.598,355.586 446.932,360.419 448.5,367.5C 449.083,382.096 442.083,390.596 427.5,393C 418.673,394.553 410.673,392.72 403.5,387.5C 400.414,384.331 398.08,380.664 396.5,376.5C 399.71,373.304 403.543,370.971 408,369.5C 412.795,380.317 420.629,383.484 431.5,379C 432.267,377.53 432.933,376.03 433.5,374.5C 434.041,371.348 433.041,368.848 430.5,367C 424.269,364.72 417.935,362.72 411.5,361C 409.308,360.074 407.308,358.907 405.5,357.5C 395.844,346.733 396.178,336.233 406.5,326C 416.138,320.746 426.138,320.08 436.5,324C 442.181,326.507 445.848,330.674 447.5,336.5 Z"/>
  </g>
  <g>
    <path style="opacity:1" fill="#fcfcfc" d="M 510.5,334.5 C 515.373,353.529 520.373,372.529 525.5,391.5C 522.167,391.5 518.833,391.5 515.5,391.5C 514.022,391.762 512.689,391.429 511.5,390.5C 510.972,388.664 510.306,386.997 509.5,385.5C 509.38,382.52 508.713,379.687 507.5,377C 501.175,376.5 494.842,376.334 488.5,376.5C 487.969,381.618 486.969,386.618 485.5,391.5C 483.167,391.5 480.833,391.5 478.5,391.5C 475.813,391.664 473.146,391.497 470.5,391C 476.589,368.812 482.755,346.645 489,324.5C 495.076,323.524 501.242,323.19 507.5,323.5C 508.267,327.327 509.267,330.994 510.5,334.5 Z"/>
  </g>
  <g>
    <path style="opacity:1" fill="#fbfbfa" d="M 567.5,332.5 C 569.836,341.684 571.336,351.017 572,360.5C 573.357,354.939 574.191,349.272 574.5,343.5C 576.454,337.061 577.788,330.395 578.5,323.5C 584.5,323.5 590.5,323.5 596.5,323.5C 596.5,326.5 596.5,329.5 596.5,332.5C 596.5,352.167 596.5,371.833 596.5,391.5C 594.167,391.5 591.833,391.5 589.5,391.5C 587.5,391.5 585.5,391.5 583.5,391.5C 583.5,388.833 583.5,386.167 583.5,383.5C 583.667,370.496 583.5,357.496 583,344.5C 581.252,354.152 579.585,363.818 578,373.5C 575.959,374.423 573.792,374.756 571.5,374.5C 570.167,374.5 568.833,374.5 567.5,374.5C 565.392,363.285 563.225,351.952 561,340.5C 561.247,357.487 561.414,374.487 561.5,391.5C 559.167,391.5 556.833,391.5 554.5,391.5C 552.5,391.5 550.5,391.5 548.5,391.5C 548.5,368.833 548.5,346.167 548.5,323.5C 554.176,323.334 559.843,323.501 565.5,324C 566.482,326.738 567.148,329.572 567.5,332.5 Z"/>
  </g>
  <g>
    <path style="opacity:1" fill="#988573" d="M 297.5,354.5 C 275.046,345.316 251.712,342.15 227.5,345C 169.981,352.829 124.148,379.995 90,426.5C 83.7139,436.073 78.2139,446.073 73.5,456.5C 72.4017,455.399 72.235,454.066 73,452.5C 77.5116,440.475 82.845,428.809 89,417.5C 108.1,383.399 135.267,357.899 170.5,341C 211.434,323.505 253.434,320.172 296.5,331C 297.482,338.747 297.815,346.58 297.5,354.5 Z"/>
  </g>
  <g>
    <path style="opacity:1" fill="#6a5a4c" d="M 515.5,391.5 C 518.833,391.5 522.167,391.5 525.5,391.5C 520.373,372.529 515.373,353.529 510.5,334.5C 510.821,332.952 511.821,332.285 513.5,332.5C 519.809,355.069 525.809,377.735 531.5,400.5C 526.5,400.5 521.5,400.5 516.5,400.5C 516.037,397.518 515.704,394.518 515.5,391.5 Z"/>
  </g>
  <g>
    <path style="opacity:1" fill="#6c5c4e" d="M 567.5,332.5 C 568.833,332.5 570.167,332.5 571.5,332.5C 571.742,336.479 572.742,340.146 574.5,343.5C 574.191,349.272 573.357,354.939 572,360.5C 571.336,351.017 569.836,341.684 567.5,332.5 Z"/>
  </g>
  <g>
    <path style="opacity:1" fill="#675648" d="M 596.5,332.5 C 598.5,332.5 600.5,332.5 602.5,332.5C 602.5,355.167 602.5,377.833 602.5,400.5C 598.167,400.5 593.833,400.5 589.5,400.5C 589.5,397.5 589.5,394.5 589.5,391.5C 591.833,391.5 594.167,391.5 596.5,391.5C 596.5,371.833 596.5,352.167 596.5,332.5 Z"/>
  </g>
  <g>
    <path style="opacity:1" fill="#6a594c" d="M 435.5,342.5 C 432.015,342.955 428.348,343.121 424.5,343C 422.34,344.332 420.34,345.832 418.5,347.5C 414.058,345.61 412.558,342.277 414,337.5C 423.057,330.97 430.224,332.637 435.5,342.5 Z"/>
  </g>
  <g>
    <path style="opacity:1" fill="#958271" d="M 842.5,333.5 C 850.488,344.127 857.488,355.461 863.5,367.5C 862.5,367.5 861.5,367.5 860.5,367.5C 867.153,394.764 869.653,422.43 868,450.5C 864.681,488.236 856.181,524.569 842.5,559.5C 842.5,484.167 842.5,408.833 842.5,333.5 Z"/>
  </g>
  <g>
    <path style="opacity:1" fill="#685749" d="M 447.5,336.5 C 455.246,341.169 455.246,345.669 447.5,350C 445.945,351.289 444.279,351.956 442.5,352C 440.874,349.372 438.874,347.039 436.5,345C 437.056,344.617 437.389,344.117 437.5,343.5C 440.833,341.167 444.167,338.833 447.5,336.5 Z"/>
  </g>
  <g>
    <path style="opacity:1" fill="#746456" d="M 497.5,335.5 C 500.433,345.24 502.767,355.24 504.5,365.5C 500.116,365.826 495.783,365.492 491.5,364.5C 494.286,355.017 496.286,345.351 497.5,335.5 Z"/>
  </g>
  <g>
    <path style="opacity:1" fill="#695b4f" d="M 297.5,354.5 C 350.225,380.581 375.225,423.247 372.5,482.5C 370.574,483.486 368.574,484.486 366.5,485.5C 360.868,482.222 355.201,478.888 349.5,475.5C 320.072,491.927 297.405,514.927 281.5,544.5C 267.811,562.224 258.645,582.224 254,604.5C 249.258,628.595 247.424,652.928 248.5,677.5C 248.935,680.838 248.268,683.838 246.5,686.5C 199.169,730.831 153.169,776.498 108.5,823.5C 108.5,794.167 108.5,764.833 108.5,735.5C 109.5,735.167 110.167,734.5 110.5,733.5C 132.456,707.04 154.622,680.706 177,654.5C 195.853,632.151 211.186,607.484 223,580.5C 231.514,558.728 233.514,536.394 229,513.5C 215.861,473.421 188.195,452.087 146,449.5C 132.944,449.406 120.777,452.406 109.5,458.5C 109.167,458.5 108.833,458.5 108.5,458.5C 102.486,460.835 97.1522,464.169 92.5,468.5C 86.4043,473.091 80.7377,478.258 75.5,484C 71.8749,485.747 68.2083,485.914 64.5,484.5C 66.2938,474.785 69.2938,465.452 73.5,456.5C 78.2139,446.073 83.7139,436.073 90,426.5C 124.148,379.995 169.981,352.829 227.5,345C 251.712,342.15 275.046,345.316 297.5,354.5 Z"/>
  </g>
  <g>
    <path style="opacity:1" fill="#69584a" d="M 583.5,383.5 C 579.833,383.5 576.167,383.5 572.5,383.5C 572.736,380.391 572.403,377.391 571.5,374.5C 573.792,374.756 575.959,374.423 578,373.5C 579.585,363.818 581.252,354.152 583,344.5C 583.5,357.496 583.667,370.496 583.5,383.5 Z"/>
  </g>
  <g>
    <path style="opacity:1" fill="#6b5a4d" d="M 567.5,374.5 C 567.5,383.167 567.5,391.833 567.5,400.5C 563.167,400.5 558.833,400.5 554.5,400.5C 554.5,397.5 554.5,394.5 554.5,391.5C 556.833,391.5 559.167,391.5 561.5,391.5C 561.414,374.487 561.247,357.487 561,340.5C 563.225,351.952 565.392,363.285 567.5,374.5 Z"/>
  </g>
  <g>
    <path style="opacity:1" fill="#6a594b" d="M 405.5,357.5 C 407.308,358.907 409.308,360.074 411.5,361C 417.935,362.72 424.269,364.72 430.5,367C 433.041,368.848 434.041,371.348 433.5,374.5C 423.125,373.229 414.291,368.895 407,361.5C 406.209,360.255 405.709,358.922 405.5,357.5 Z"/>
  </g>
  <g>
    <path style="opacity:1" fill="#695b4f" d="M 863.5,367.5 C 870.93,381.025 877.263,395.025 882.5,409.5C 889.105,430.58 894.105,451.914 897.5,473.5C 899.226,489.949 900.226,506.449 900.5,523C 899.663,540.201 898.33,557.368 896.5,574.5C 891.818,595.896 886.484,617.23 880.5,638.5C 879.599,639.29 878.932,640.29 878.5,641.5C 853.684,716.182 810.018,777.182 747.5,824.5C 749.257,800.256 747.591,776.256 742.5,752.5C 747.025,755.772 752.025,757.272 757.5,757C 764.666,754.166 767.166,748.999 765,741.5C 764.215,739.714 763.049,738.214 761.5,737C 753.656,731.97 745.989,726.804 738.5,721.5C 784.199,674.814 818.866,620.814 842.5,559.5C 856.181,524.569 864.681,488.236 868,450.5C 869.653,422.43 867.153,394.764 860.5,367.5C 861.5,367.5 862.5,367.5 863.5,367.5 Z"/>
  </g>
  <g>
    <path style="opacity:1" fill="#68574a" d="M 403.5,387.5 C 410.673,392.72 418.673,394.553 427.5,393C 442.083,390.596 449.083,382.096 448.5,367.5C 449.329,366.668 450.162,367.001 451,368.5C 458.252,382.145 455.085,392.645 441.5,400C 430.603,404.121 420.27,403.121 410.5,397C 407.152,394.499 404.818,391.332 403.5,387.5 Z"/>
  </g>
  <g>
    <path style="opacity:1" fill="#6b5a4d" d="M 509.5,385.5 C 504.5,385.5 499.5,385.5 494.5,385.5C 493.969,390.618 492.969,395.618 491.5,400.5C 486.489,400.666 481.489,400.499 476.5,400C 477.482,397.262 478.148,394.428 478.5,391.5C 480.833,391.5 483.167,391.5 485.5,391.5C 486.969,386.618 487.969,381.618 488.5,376.5C 494.842,376.334 501.175,376.5 507.5,377C 508.713,379.687 509.38,382.52 509.5,385.5 Z"/>
  </g>
  <g>
    <path style="opacity:1" fill="#283a74" d="M 110.5,733.5 C 109.501,642.002 109.167,550.335 109.5,458.5C 120.777,452.406 132.944,449.406 146,449.5C 188.195,452.087 215.861,473.421 229,513.5C 233.514,536.394 231.514,558.728 223,580.5C 211.186,607.484 195.853,632.151 177,654.5C 154.622,680.706 132.456,707.04 110.5,733.5 Z"/>
  </g>
  <g>
    <path style="opacity:1" fill="#fefefe" d="M 481.5,450.5 C 490.839,450.334 500.173,450.5 509.5,451C 515.015,452.858 517.348,456.692 516.5,462.5C 553.124,465.907 588.791,473.574 623.5,485.5C 610.469,494.79 598.969,505.79 589,518.5C 587.468,526.808 590.968,531.141 599.5,531.5C 599.414,532.496 599.748,533.329 600.5,534C 630.403,550.625 657.403,571.125 681.5,595.5C 682.623,598.43 683.623,601.43 684.5,604.5C 685.167,604.833 685.833,605.167 686.5,605.5C 687.474,603.257 687.808,600.924 687.5,598.5C 696.866,597.849 706.2,596.849 715.5,595.5C 719.948,594.717 722.281,592.05 722.5,587.5C 720.076,572.227 715.076,557.894 707.5,544.5C 707.624,543.893 707.957,543.56 708.5,543.5C 729.164,573.116 739.83,606.116 740.5,642.5C 740.667,657.837 740.5,673.17 740,688.5C 739.904,699.434 738.737,710.1 736.5,720.5C 722.541,712.183 708.208,704.35 693.5,697C 664.074,684.761 633.407,678.094 601.5,677C 565.849,675.43 530.183,674.596 494.5,674.5C 494.5,668.167 494.5,661.833 494.5,655.5C 531.195,653.305 553.695,634.305 562,598.5C 564.874,562.062 549.374,537.228 515.5,524C 510.543,522.842 505.543,522.008 500.5,521.5C 498.735,520.539 496.735,520.205 494.5,520.5C 494.5,497.5 494.5,474.5 494.5,451.5C 489.968,451.818 485.634,451.485 481.5,450.5 Z"/>
  </g>
  <g>
    <path style="opacity:1" fill="#f1f1f1" d="M 481.5,450.5 C 485.634,451.485 489.968,451.818 494.5,451.5C 494.5,474.5 494.5,497.5 494.5,520.5C 496.735,520.205 498.735,520.539 500.5,521.5C 498.5,521.5 496.5,521.5 494.5,521.5C 464.251,523.378 443.418,538.378 432,566.5C 422.944,605.215 436.111,633.381 471.5,651C 478.959,653.566 486.626,655.066 494.5,655.5C 494.5,661.833 494.5,668.167 494.5,674.5C 454.797,674.462 415.13,675.629 375.5,678C 341.092,680.248 308.759,689.582 278.5,706C 270.139,710.845 261.806,715.678 253.5,720.5C 251.274,706.233 249.608,691.9 248.5,677.5C 247.424,652.928 249.258,628.595 254,604.5C 258.645,582.224 267.811,562.224 281.5,544.5C 275.306,556.893 270.806,569.893 268,583.5C 265.892,590.534 268.392,594.534 275.5,595.5C 281.202,594.766 286.535,592.933 291.5,590C 296.731,585.26 302.064,580.76 307.5,576.5C 326.725,560.716 347.725,547.716 370.5,537.5C 378.995,534.503 387.662,532.003 396.5,530C 401.535,526.987 402.702,522.82 400,517.5C 389.9,505.563 378.733,494.896 366.5,485.5C 368.574,484.486 370.574,483.486 372.5,482.5C 405.077,472.118 438.41,465.451 472.5,462.5C 472.612,456.256 475.612,452.256 481.5,450.5 Z"/>
  </g>
  <g>
    <path style="opacity:1" fill="#d5d8e5" d="M 108.5,458.5 C 108.5,550.833 108.5,643.167 108.5,735.5C 108.5,764.833 108.5,794.167 108.5,823.5C 108.175,831.352 108.508,839.018 109.5,846.5C 114.232,930.48 150.232,997.313 217.5,1047C 225.716,1052.72 234.049,1058.22 242.5,1063.5C 248.035,1066.77 253.702,1069.77 259.5,1072.5C 273.404,1079.95 287.737,1086.62 302.5,1092.5C 331.605,1104.14 361.605,1113.31 392.5,1120C 401.883,1122.63 410.883,1126.13 419.5,1130.5C 446.607,1143.29 471.607,1159.29 494.5,1178.5C 517.393,1159.29 542.393,1143.29 569.5,1130.5C 578.117,1126.13 587.117,1122.63 596.5,1120C 627.48,1113.6 657.48,1104.43 686.5,1092.5C 742.751,1071.39 789.918,1037.73 828,991.5C 861.419,945.744 878.585,894.411 879.5,837.5C 880.499,771.335 880.832,705.002 880.5,638.5C 886.484,617.23 891.818,595.896 896.5,574.5C 896.667,667.834 896.5,761.167 896,854.5C 885.774,955.317 836.94,1030.82 749.5,1081C 702.223,1106.65 652.223,1124.98 599.5,1136C 563.626,1149.26 531.292,1168.26 502.5,1193C 497.953,1194.55 493.287,1194.88 488.5,1194C 463.866,1174 437.199,1157 408.5,1143C 388.88,1136.09 368.88,1130.43 348.5,1126C 291.946,1110.72 240.612,1085.39 194.5,1050C 132.468,997.773 98.6349,930.94 93,849.5C 92.5,722.5 92.3333,595.5 92.5,468.5C 97.1522,464.169 102.486,460.835 108.5,458.5 Z"/>
  </g>
  <g>
    <path style="opacity:1" fill="#536190" d="M 108.5,458.5 C 108.833,458.5 109.167,458.5 109.5,458.5C 109.167,550.335 109.501,642.002 110.5,733.5C 110.167,734.5 109.5,735.167 108.5,735.5C 108.5,643.167 108.5,550.833 108.5,458.5 Z"/>
  </g>
  <g>
    <path style="opacity:1" fill="#b8b8b8" d="M 470.5,467.5 C 474.241,466.599 476.241,467.932 476.5,471.5C 472.094,471.647 467.761,472.314 463.5,473.5C 461.085,473.281 460.085,471.948 460.5,469.5C 464.04,469.247 467.373,468.581 470.5,467.5 Z"/>
  </g>
  <g>
    <path style="opacity:1" fill="#c4c4c4" d="M 513.5,467.5 C 517.56,467.485 521.56,467.985 525.5,469C 530.154,470.074 530.487,471.574 526.5,473.5C 522.169,472.751 517.836,472.084 513.5,471.5C 513.5,470.167 513.5,468.833 513.5,467.5 Z"/>
  </g>
  <g>
    <path style="opacity:1" fill="#b8b8b8" d="M 434.5,474.5 C 436.199,474.34 437.866,474.506 439.5,475C 440.833,476 440.833,477 439.5,478C 435.267,478.933 431.1,480.1 427,481.5C 424.98,480.968 424.147,479.635 424.5,477.5C 428.048,476.87 431.381,475.87 434.5,474.5 Z"/>
  </g>
  <g>
    <path style="opacity:1" fill="#c3c3c3" d="M 549.5,474.5 C 553.553,475.013 557.553,475.846 561.5,477C 566.154,478.074 566.487,479.574 562.5,481.5C 558.128,480.701 553.961,479.367 550,477.5C 549.517,476.552 549.351,475.552 549.5,474.5 Z"/>
  </g>
  <g>
    <path style="opacity:1" fill="#bfbebe" d="M 366.5,485.5 C 378.733,494.896 389.9,505.563 400,517.5C 402.702,522.82 401.535,526.987 396.5,530C 387.662,532.003 378.995,534.503 370.5,537.5C 364.468,530.137 357.468,523.803 349.5,518.5C 329.139,533.219 315.139,552.553 307.5,576.5C 302.064,580.76 296.731,585.26 291.5,590C 286.535,592.933 281.202,594.766 275.5,595.5C 268.392,594.534 265.892,590.534 268,583.5C 270.806,569.893 275.306,556.893 281.5,544.5C 297.405,514.927 320.072,491.927 349.5,475.5C 355.201,478.888 360.868,482.222 366.5,485.5 Z"/>
  </g>
  <g>
    <path style="opacity:1" fill="#bfbfbf" d="M 708.5,543.5 C 707.957,543.56 707.624,543.893 707.5,544.5C 715.076,557.894 720.076,572.227 722.5,587.5C 722.281,592.05 719.948,594.717 715.5,595.5C 710.452,595.873 705.785,594.706 701.5,592C 694.978,586.969 688.644,581.803 682.5,576.5C 674.516,553.339 660.85,534.172 641.5,519C 632.593,523.388 625.26,529.888 619.5,538.5C 612.85,536.169 606.183,533.836 599.5,531.5C 590.968,531.141 587.468,526.808 589,518.5C 598.969,505.79 610.469,494.79 623.5,485.5C 628.975,481.926 634.641,478.593 640.5,475.5C 669.521,491.855 692.188,514.521 708.5,543.5 Z"/>
  </g>
  <g>
    <path style="opacity:1" fill="#b7b7b7" d="M 400.5,485.5 C 401.833,485.5 403.167,485.5 404.5,485.5C 404.67,486.822 404.337,487.989 403.5,489C 399.376,491.207 395.043,492.707 390.5,493.5C 390.33,492.178 390.663,491.011 391.5,490C 394.648,488.576 397.648,487.076 400.5,485.5 Z"/>
  </g>
  <g>
    <path style="opacity:1" fill="#c4c4c4" d="M 585.5,485.5 C 589.998,486.411 594.332,487.911 598.5,490C 599.93,491.88 599.596,493.38 597.5,494.5C 592.772,492.476 588.439,489.976 584.5,487C 585.056,486.617 585.389,486.117 585.5,485.5 Z"/>
  </g>
  <g>
    <path style="opacity:1" fill="#c07d24" d="M 153.5,498.5 C 159.356,498.854 161.523,501.854 160,507.5C 156.667,511.5 153.333,511.5 150,507.5C 148.665,503.392 149.832,500.392 153.5,498.5 Z"/>
  </g>
  <g>
    <path style="opacity:1" fill="#fddeb3" d="M 370.5,537.5 C 347.725,547.716 326.725,560.716 307.5,576.5C 315.139,552.553 329.139,533.219 349.5,518.5C 357.468,523.803 364.468,530.137 370.5,537.5 Z"/>
  </g>
  <g>
    <path style="opacity:1" fill="#fddeb3" d="M 682.5,576.5 C 663.543,560.563 642.543,547.896 619.5,538.5C 625.26,529.888 632.593,523.388 641.5,519C 660.85,534.172 674.516,553.339 682.5,576.5 Z"/>
  </g>
  <g>
    <path style="opacity:1" fill="#f19103" d="M 494.5,521.5 C 494.5,530.167 494.5,538.833 494.5,547.5C 487.833,547.5 481.167,547.5 474.5,547.5C 473.51,553.31 473.177,559.31 473.5,565.5C 477.5,565.5 481.5,565.5 485.5,565.5C 489.341,571.849 492.675,578.516 495.5,585.5C 494.502,608.661 494.169,631.994 494.5,655.5C 486.626,655.066 478.959,653.566 471.5,651C 436.111,633.381 422.944,605.215 432,566.5C 443.418,538.378 464.251,523.378 494.5,521.5 Z"/>
  </g>
  <g>
    <path style="opacity:1" fill="#fe9803" d="M 494.5,521.5 C 496.5,521.5 498.5,521.5 500.5,521.5C 505.543,522.008 510.543,522.842 515.5,524C 549.374,537.228 564.874,562.062 562,598.5C 553.695,634.305 531.195,653.305 494.5,655.5C 494.169,631.994 494.502,608.661 495.5,585.5C 501.105,596.71 506.772,608.044 512.5,619.5C 518.798,620.496 525.132,620.83 531.5,620.5C 531.5,614.5 531.5,608.5 531.5,602.5C 528.753,602.813 526.086,602.48 523.5,601.5C 515.105,583.71 506.439,566.044 497.5,548.5C 496.675,547.614 495.675,547.281 494.5,547.5C 494.5,538.833 494.5,530.167 494.5,521.5 Z"/>
  </g>
  <g>
    <path style="opacity:1" fill="#4e71e4" d="M 178.5,528.5 C 185,527.499 187.5,530.165 186,536.5C 179.412,541.509 176.078,539.842 176,531.5C 176.698,530.309 177.531,529.309 178.5,528.5 Z"/>
  </g>
  <g>
    <path style="opacity:1" fill="#f4f4f4" d="M 599.5,531.5 C 606.183,533.836 612.85,536.169 619.5,538.5C 642.543,547.896 663.543,560.563 682.5,576.5C 688.644,581.803 694.978,586.969 701.5,592C 705.785,594.706 710.452,595.873 715.5,595.5C 706.2,596.849 696.866,597.849 687.5,598.5C 686.194,595.858 685.194,593.025 684.5,590C 683.216,589.316 682.049,589.483 681,590.5C 681.019,592.107 681.185,593.774 681.5,595.5C 657.403,571.125 630.403,550.625 600.5,534C 599.748,533.329 599.414,532.496 599.5,531.5 Z"/>
  </g>
  <g>
    <path style="opacity:1" fill="#3d2500" d="M 474.5,547.5 C 474.5,553.167 474.5,558.833 474.5,564.5C 478.371,564.185 482.038,564.518 485.5,565.5C 481.5,565.5 477.5,565.5 473.5,565.5C 473.177,559.31 473.51,553.31 474.5,547.5 Z"/>
  </g>
  <g>
    <path style="opacity:1" fill="#030100" d="M 474.5,547.5 C 481.167,547.5 487.833,547.5 494.5,547.5C 495.675,547.281 496.675,547.614 497.5,548.5C 506.439,566.044 515.105,583.71 523.5,601.5C 526.086,602.48 528.753,602.813 531.5,602.5C 531.5,608.5 531.5,614.5 531.5,620.5C 525.132,620.83 518.798,620.496 512.5,619.5C 506.772,608.044 501.105,596.71 495.5,585.5C 492.675,578.516 489.341,571.849 485.5,565.5C 482.038,564.518 478.371,564.185 474.5,564.5C 474.5,558.833 474.5,553.167 474.5,547.5 Z"/>
  </g>
  <g>
    <path style="opacity:1" fill="#070300" d="M 483.5,574.5 C 487.467,580.935 490.8,587.769 493.5,595C 489.476,603.38 485.476,611.713 481.5,620C 474.833,620.667 468.167,620.667 461.5,620C 468.973,604.888 476.306,589.721 483.5,574.5 Z"/>
  </g>
  <g>
    <path style="opacity:1" fill="#b8b8b8" d="M 305.5,589.5 C 306.5,589.5 307.5,589.5 308.5,589.5C 308.119,594.237 307.286,598.904 306,603.5C 303.704,606.388 302.538,605.888 302.5,602C 302.934,597.658 303.934,593.492 305.5,589.5 Z"/>
  </g>
  <g>
    <path style="opacity:1" fill="#c3c3c3" d="M 687.5,598.5 C 687.808,600.924 687.474,603.257 686.5,605.5C 685.833,605.167 685.167,604.833 684.5,604.5C 683.623,601.43 682.623,598.43 681.5,595.5C 681.185,593.774 681.019,592.107 681,590.5C 682.049,589.483 683.216,589.316 684.5,590C 685.194,593.025 686.194,595.858 687.5,598.5 Z"/>
  </g>
  <g>
    <path style="opacity:1" fill="#b9b9b9" d="M 299.5,625.5 C 301.89,625.685 302.89,627.018 302.5,629.5C 301.726,633.465 301.393,637.465 301.5,641.5C 300.167,641.5 298.833,641.5 297.5,641.5C 297.001,635.942 297.667,630.608 299.5,625.5 Z"/>
  </g>
  <g>
    <path style="opacity:1" fill="#c2c2c2" d="M 688.5,625.5 C 689.496,625.414 690.329,625.748 691,626.5C 691.459,630.339 691.959,634.172 692.5,638C 693.061,641.448 691.894,642.615 689,641.5C 687.966,636.098 687.8,630.764 688.5,625.5 Z"/>
  </g>
  <g>
    <path style="opacity:1" fill="#546190" d="M 880.5,638.5 C 880.832,705.002 880.499,771.335 879.5,837.5C 879.832,771.998 879.499,706.665 878.5,641.5C 878.932,640.29 879.599,639.29 880.5,638.5 Z"/>
  </g>
  <g>
    <path style="opacity:1" fill="#283a75" d="M 878.5,641.5 C 879.499,706.665 879.832,771.998 879.5,837.5C 878.585,894.411 861.419,945.744 828,991.5C 789.918,1037.73 742.751,1071.39 686.5,1092.5C 678.324,1078.14 669.657,1064.14 660.5,1050.5C 687.664,1044.87 714.331,1037.37 740.5,1028C 747.502,1025.17 753.835,1021.34 759.5,1016.5C 757.684,1014.18 755.684,1012.02 753.5,1010C 766.03,1004.47 775.697,995.8 782.5,984C 779.328,982.248 776.328,980.248 773.5,978C 784.35,968.948 790.683,957.615 792.5,944C 788.122,943.321 783.789,942.488 779.5,941.5C 781.813,931.655 782.813,921.655 782.5,911.5C 773.167,911.5 763.833,911.5 754.5,911.5C 754.167,911.5 753.833,911.5 753.5,911.5C 750.1,898.338 747.267,885.005 745,871.5C 744.333,862.5 744.333,853.5 745,844.5C 746.162,837.865 746.995,831.199 747.5,824.5C 810.018,777.182 853.684,716.182 878.5,641.5 Z"/>
  </g>
  <g>
    <path style="opacity:1" fill="#c3c3c3" d="M 689.5,662.5 C 690.822,662.33 691.989,662.663 693,663.5C 693.667,668.167 693.667,672.833 693,677.5C 691.989,678.337 690.822,678.67 689.5,678.5C 689.5,673.167 689.5,667.833 689.5,662.5 Z"/>
  </g>
  <g>
    <path style="opacity:1" fill="#b7b7b7" d="M 297.5,662.5 C 298.496,662.414 299.329,662.748 300,663.5C 300.499,668.489 300.666,673.489 300.5,678.5C 299.167,678.5 297.833,678.5 296.5,678.5C 296.218,673.073 296.551,667.74 297.5,662.5 Z"/>
  </g>
  <g>
    <path style="opacity:1" fill="#020202" d="M 494.5,674.5 C 530.183,674.596 565.849,675.43 601.5,677C 633.407,678.094 664.074,684.761 693.5,697C 708.208,704.35 722.541,712.183 736.5,720.5C 736.842,721.338 737.508,721.672 738.5,721.5C 745.989,726.804 753.656,731.97 761.5,737C 763.049,738.214 764.215,739.714 765,741.5C 767.166,748.999 764.666,754.166 757.5,757C 752.025,757.272 747.025,755.772 742.5,752.5C 720.598,739.217 697.598,728.05 673.5,719C 642.791,710.395 611.457,706.395 579.5,707C 523.167,706.333 466.833,706.333 410.5,707C 389.771,707.369 369.104,708.703 348.5,711C 331.994,713.902 315.994,718.569 300.5,725C 281.857,733.987 263.524,743.487 245.5,753.5C 233.045,761.104 226.045,757.771 224.5,743.5C 224.615,741.053 225.615,739.053 227.5,737.5C 236.189,731.8 244.856,726.133 253.5,720.5C 261.806,715.678 270.139,710.845 278.5,706C 308.759,689.582 341.092,680.248 375.5,678C 415.13,675.629 454.797,674.462 494.5,674.5 Z"/>
  </g>
  <g>
    <path style="opacity:1" fill="#998674" d="M 246.5,686.5 C 247.537,688.738 247.703,691.071 247,693.5C 241.354,703.125 236.521,713.125 232.5,723.5C 189.69,759.803 148.856,798.47 110,839.5C 109.503,841.81 109.337,844.143 109.5,846.5C 108.508,839.018 108.175,831.352 108.5,823.5C 153.169,776.498 199.169,730.831 246.5,686.5 Z"/>
  </g>
  <g>
    <path style="opacity:1" fill="#7b6b5e" d="M 248.5,677.5 C 249.608,691.9 251.274,706.233 253.5,720.5C 244.856,726.133 236.189,731.8 227.5,737.5C 228.605,732.625 230.272,727.958 232.5,723.5C 236.521,713.125 241.354,703.125 247,693.5C 247.703,691.071 247.537,688.738 246.5,686.5C 248.268,683.838 248.935,680.838 248.5,677.5 Z"/>
  </g>
  <g>
    <path style="opacity:1" fill="#bebebe" d="M 742.5,752.5 C 747.591,776.256 749.257,800.256 747.5,824.5C 746.995,831.199 746.162,837.865 745,844.5C 744.333,853.5 744.333,862.5 745,871.5C 747.267,885.005 750.1,898.338 753.5,911.5C 734.83,911.796 716.163,912.296 697.5,913C 688.42,919.291 679.253,925.457 670,931.5C 699.398,897.441 706.065,859.108 690,816.5C 684.619,805.713 677.786,796.047 669.5,787.5C 672.129,784.369 674.962,781.369 678,778.5C 678.746,775.211 677.58,772.711 674.5,771C 638.916,742.245 599.249,734.912 555.5,749C 554.196,749.804 553.529,750.971 553.5,752.5C 554.844,756.516 556.178,760.516 557.5,764.5C 522.236,780.776 501.236,808.11 494.5,846.5C 487.703,808.061 466.703,780.728 431.5,764.5C 433.579,760.026 434.745,755.359 435,750.5C 388.773,733.672 347.44,741.672 311,774.5C 310.333,775.833 310.333,777.167 311,778.5C 314.038,781.369 316.871,784.369 319.5,787.5C 289.675,819.849 282.508,856.849 298,898.5C 302.966,910.28 309.8,920.78 318.5,930C 310.803,926.683 303.803,922.016 297.5,916C 295.283,914.725 292.949,913.725 290.5,913C 272.171,912.278 253.838,911.778 235.5,911.5C 239.113,898.04 241.946,884.373 244,870.5C 244.667,861.5 244.667,852.5 244,843.5C 239.182,813.405 239.682,783.405 245.5,753.5C 263.524,743.487 281.857,733.987 300.5,725C 315.994,718.569 331.994,713.902 348.5,711C 369.104,708.703 389.771,707.369 410.5,707C 466.833,706.333 523.167,706.333 579.5,707C 611.457,706.395 642.791,710.395 673.5,719C 697.598,728.05 720.598,739.217 742.5,752.5 Z"/>
  </g>
  <g>
    <path style="opacity:1" fill="#917e6d" d="M 232.5,723.5 C 230.272,727.958 228.605,732.625 227.5,737.5C 225.615,739.053 224.615,741.053 224.5,743.5C 215.012,779.585 212.845,816.251 218,853.5C 218.667,863.833 218.667,874.167 218,884.5C 216.273,893.64 214.107,902.64 211.5,911.5C 209.833,911.5 208.167,911.5 206.5,911.5C 206.5,915.167 206.5,918.833 206.5,922.5C 197.5,922.5 188.5,922.5 179.5,922.5C 179.84,932.912 180.84,943.245 182.5,953.5C 177.598,953.924 172.931,955.091 168.5,957C 171.786,970.621 178.786,981.955 189.5,991C 186.995,992.753 184.329,994.253 181.5,995.5C 180.417,996.365 180.251,997.365 181,998.5C 187.555,1010.04 197.055,1018.2 209.5,1023C 207.316,1025.02 205.316,1027.18 203.5,1029.5C 208.615,1034.57 214.615,1038.4 221.5,1041C 231.214,1044.4 240.881,1047.9 250.5,1051.5C 247.415,1055.25 244.749,1059.25 242.5,1063.5C 234.049,1058.22 225.716,1052.72 217.5,1047C 150.232,997.313 114.232,930.48 109.5,846.5C 109.337,844.143 109.503,841.81 110,839.5C 148.856,798.47 189.69,759.803 232.5,723.5 Z"/>
  </g>
  <g>
    <path style="opacity:1" fill="#a6907e" d="M 431.5,764.5 C 389.427,750.061 352.094,757.728 319.5,787.5C 316.871,784.369 314.038,781.369 311,778.5C 310.333,777.167 310.333,775.833 311,774.5C 347.44,741.672 388.773,733.672 435,750.5C 434.745,755.359 433.579,760.026 431.5,764.5 Z"/>
  </g>
  <g>
    <path style="opacity:1" fill="#a6907e" d="M 669.5,787.5 C 636.838,757.833 599.504,750.167 557.5,764.5C 556.178,760.516 554.844,756.516 553.5,752.5C 553.529,750.971 554.196,749.804 555.5,749C 599.249,734.912 638.916,742.245 674.5,771C 677.58,772.711 678.746,775.211 678,778.5C 674.962,781.369 672.129,784.369 669.5,787.5 Z"/>
  </g>
  <g>
    <path style="opacity:1" fill="#fedeb2" d="M 431.5,764.5 C 466.703,780.728 487.703,808.061 494.5,846.5C 501.236,808.11 522.236,780.776 557.5,764.5C 599.504,750.167 636.838,757.833 669.5,787.5C 677.786,796.047 684.619,805.713 690,816.5C 706.065,859.108 699.398,897.441 670,931.5C 679.253,925.457 688.42,919.291 697.5,913C 716.163,912.296 734.83,911.796 753.5,911.5C 753.833,911.5 754.167,911.5 754.5,911.5C 754.211,920.737 753.211,929.904 751.5,939C 751.833,939.833 752.167,940.667 752.5,941.5C 755.45,942.488 758.45,943.321 761.5,944C 762.516,944.519 763.182,945.353 763.5,946.5C 760.44,958.876 754.44,969.542 745.5,978.5C 748.304,980.138 750.971,981.971 753.5,984C 748.167,996 739.5,1004.67 727.5,1010C 730.379,1011.84 731.879,1014.34 732,1017.5C 723.532,1024.66 714.032,1030.16 703.5,1034C 689.218,1038.87 674.885,1043.54 660.5,1048C 645.368,1051.51 630.368,1055.01 615.5,1058.5C 535.148,1073.16 454.815,1073.16 374.5,1058.5C 347.901,1053.27 321.567,1046.44 295.5,1038C 281.832,1033.33 269.165,1026.83 257.5,1018.5C 256.386,1017.28 256.219,1015.94 257,1014.5C 258.5,1013 260,1011.5 261.5,1010C 249.5,1004.67 240.833,996 235.5,984C 238.029,981.971 240.696,980.138 243.5,978.5C 234.56,969.542 228.56,958.876 225.5,946.5C 225.818,945.353 226.484,944.519 227.5,944C 230.55,943.321 233.55,942.488 236.5,941.5C 236.833,940.5 237.167,939.5 237.5,938.5C 235.585,929.594 234.585,920.594 234.5,911.5C 234.833,911.5 235.167,911.5 235.5,911.5C 253.838,911.778 272.171,912.278 290.5,913C 292.949,913.725 295.283,914.725 297.5,916C 303.803,922.016 310.803,926.683 318.5,930C 309.8,920.78 302.966,910.28 298,898.5C 282.508,856.849 289.675,819.849 319.5,787.5C 352.094,757.728 389.427,750.061 431.5,764.5 Z"/>
  </g>
  <g>
    <path style="opacity:1" fill="#806f60" d="M 224.5,743.5 C 226.045,757.771 233.045,761.104 245.5,753.5C 239.682,783.405 239.182,813.405 244,843.5C 244.667,852.5 244.667,861.5 244,870.5C 241.946,884.373 239.113,898.04 235.5,911.5C 235.167,911.5 234.833,911.5 234.5,911.5C 226.833,911.5 219.167,911.5 211.5,911.5C 214.107,902.64 216.273,893.64 218,884.5C 218.667,874.167 218.667,863.833 218,853.5C 212.845,816.251 215.012,779.585 224.5,743.5 Z"/>
  </g>
  <g>
    <path style="opacity:1" fill="#4d70e3" d="M 834.5,785.5 C 835.927,787.148 836.76,789.148 837,791.5C 837.498,794.817 837.665,798.15 837.5,801.5C 858.79,803.152 858.79,804.819 837.5,806.5C 835.827,827.821 834.161,827.821 832.5,806.5C 810.694,805.473 810.361,803.473 831.5,800.5C 832.043,795.375 833.043,790.375 834.5,785.5 Z"/>
  </g>
  <g>
    <path style="opacity:1" fill="#bf7c25" d="M 808.5,828.5 C 813.136,827.812 816.136,829.645 817.5,834C 814.891,840.242 811.057,841.075 806,836.5C 805.388,833.389 806.221,830.723 808.5,828.5 Z"/>
  </g>
  <g>
    <path style="opacity:1" fill="#020201" d="M 384.5,832.5 C 405.067,829.927 416.733,838.76 419.5,859C 418.273,876.394 408.939,885.561 391.5,886.5C 371.358,883.503 362.858,871.837 366,851.5C 380.423,853.244 386.589,846.91 384.5,832.5 Z"/>
  </g>
  <g>
    <path style="opacity:1" fill="#020201" d="M 590.5,832.5 C 606.19,830.717 617.023,837.05 623,851.5C 625.933,872.55 616.933,884.217 596,886.5C 579.154,884.819 570.32,875.486 569.5,858.5C 569.559,856.109 569.893,853.775 570.5,851.5C 578.637,853.533 584.804,850.866 589,843.5C 589.784,840.24 589.617,837.073 588.5,834C 589.416,833.722 590.082,833.222 590.5,832.5 Z"/>
  </g>
  <g>
    <path style="opacity:1" fill="#fdeed7" d="M 211.5,911.5 C 219.167,911.5 226.833,911.5 234.5,911.5C 234.585,920.594 235.585,929.594 237.5,938.5C 237.167,939.5 236.833,940.5 236.5,941.5C 233.55,942.488 230.55,943.321 227.5,944C 226.484,944.519 225.818,945.353 225.5,946.5C 228.56,958.876 234.56,969.542 243.5,978.5C 240.696,980.138 238.029,981.971 235.5,984C 240.833,996 249.5,1004.67 261.5,1010C 260,1011.5 258.5,1013 257,1014.5C 256.219,1015.94 256.386,1017.28 257.5,1018.5C 269.165,1026.83 281.832,1033.33 295.5,1038C 321.567,1046.44 347.901,1053.27 374.5,1058.5C 359.32,1056.76 344.32,1054.09 329.5,1050.5C 311.552,1047.26 293.886,1042.93 276.5,1037.5C 260.552,1033.57 245.552,1027.41 231.5,1019C 230.643,1018.31 229.977,1017.48 229.5,1016.5C 231.316,1014.18 233.316,1012.02 235.5,1010C 222.943,1004.44 213.277,995.771 206.5,984C 209.5,982.167 212.5,980.333 215.5,978.5C 205.789,969.748 199.123,959.081 195.5,946.5C 195.608,945.558 195.941,944.725 196.5,944C 200.803,942.95 205.137,942.116 209.5,941.5C 207.961,935.265 206.961,928.932 206.5,922.5C 206.5,918.833 206.5,915.167 206.5,911.5C 208.167,911.5 209.833,911.5 211.5,911.5 Z"/>
  </g>
  <g>
    <path style="opacity:1" fill="#fceed7" d="M 754.5,911.5 C 763.833,911.5 773.167,911.5 782.5,911.5C 782.813,921.655 781.813,931.655 779.5,941.5C 783.789,942.488 788.122,943.321 792.5,944C 790.683,957.615 784.35,968.948 773.5,978C 776.328,980.248 779.328,982.248 782.5,984C 775.697,995.8 766.03,1004.47 753.5,1010C 755.684,1012.02 757.684,1014.18 759.5,1016.5C 753.835,1021.34 747.502,1025.17 740.5,1028C 714.331,1037.37 687.664,1044.87 660.5,1050.5C 645.593,1053.68 630.593,1056.35 615.5,1058.5C 630.368,1055.01 645.368,1051.51 660.5,1048C 674.885,1043.54 689.218,1038.87 703.5,1034C 714.032,1030.16 723.532,1024.66 732,1017.5C 731.879,1014.34 730.379,1011.84 727.5,1010C 739.5,1004.67 748.167,996 753.5,984C 750.971,981.971 748.304,980.138 745.5,978.5C 754.44,969.542 760.44,958.876 763.5,946.5C 763.182,945.353 762.516,944.519 761.5,944C 758.45,943.321 755.45,942.488 752.5,941.5C 752.167,940.667 751.833,939.833 751.5,939C 753.211,929.904 754.211,920.737 754.5,911.5 Z"/>
  </g>
  <g>
    <path style="opacity:1" fill="#d8bd9d" d="M 544.5,926.5 C 543.404,928.103 542.07,929.603 540.5,931C 528.5,939.667 516.5,948.333 504.5,957C 498.139,960.272 491.806,960.272 485.5,957C 474.009,948.421 462.343,940.088 450.5,932C 448.622,930.457 447.122,928.624 446,926.5C 445.51,927.793 445.343,929.127 445.5,930.5C 444.635,923.425 447.635,918.259 454.5,915C 481.5,914.333 508.5,914.333 535.5,915C 540.944,916.942 543.944,920.775 544.5,926.5 Z"/>
  </g>
  <g>
    <path style="opacity:1" fill="#4e72e6" d="M 824.5,914.5 C 832.818,914.987 834.485,918.487 829.5,925C 822.834,925.996 820.334,923.163 822,916.5C 822.995,915.934 823.828,915.267 824.5,914.5 Z"/>
  </g>
  <g>
    <path style="opacity:1" fill="#a7917e" d="M 544.5,926.5 C 544.84,930.131 544.006,933.464 542,936.5C 529.167,949.333 516.333,962.167 503.5,975C 497.833,978.333 492.167,978.333 486.5,975C 473.667,962.167 460.833,949.333 448,936.5C 446.878,934.593 446.045,932.593 445.5,930.5C 445.343,929.127 445.51,927.793 446,926.5C 447.122,928.624 448.622,930.457 450.5,932C 462.343,940.088 474.009,948.421 485.5,957C 491.806,960.272 498.139,960.272 504.5,957C 516.5,948.333 528.5,939.667 540.5,931C 542.07,929.603 543.404,928.103 544.5,926.5 Z"/>
  </g>
  <g>
    <path style="opacity:1" fill="#fcfcfb" d="M 523.5,1001.5 C 523.083,1005.83 522.583,1010.17 522,1014.5C 520.833,1015.67 519.667,1016.83 518.5,1018C 510.599,1019.14 502.599,1019.64 494.5,1019.5C 487.167,1019.33 479.833,1019.17 472.5,1019C 470.43,1018.05 468.93,1016.55 468,1014.5C 467.265,1010.19 466.765,1005.85 466.5,1001.5C 473.173,999.327 479.84,996.827 486.5,994C 491.5,993.333 496.5,993.333 501.5,994C 508.607,997.202 515.94,999.702 523.5,1001.5 Z"/>
  </g>
  <g>
    <path style="opacity:1" fill="#d9be9e" d="M 466.5,1001.5 C 466.765,1005.85 467.265,1010.19 468,1014.5C 468.93,1016.55 470.43,1018.05 472.5,1019C 479.833,1019.17 487.167,1019.33 494.5,1019.5C 502.599,1019.64 510.599,1019.14 518.5,1018C 519.667,1016.83 520.833,1015.67 522,1014.5C 522.583,1010.17 523.083,1005.83 523.5,1001.5C 539.606,1004.82 555.44,1003.82 571,998.5C 574.739,998.905 576.073,1000.9 575,1004.5C 565.574,1021.43 551.741,1033.1 533.5,1039.5C 533.389,1038.88 533.056,1038.38 532.5,1038C 507.363,1030.85 482.196,1030.68 457,1037.5C 455.97,1037.84 455.47,1038.5 455.5,1039.5C 436.696,1032.86 422.696,1020.7 413.5,1003C 414,1000.5 415.5,999 418,998.5C 433.891,1003.86 450.057,1004.86 466.5,1001.5 Z"/>
  </g>
  <g>
    <path style="opacity:1" fill="#b49d86" d="M 533.5,1039.5 C 507.514,1047.5 481.514,1047.5 455.5,1039.5C 455.47,1038.5 455.97,1037.84 457,1037.5C 482.196,1030.68 507.363,1030.85 532.5,1038C 533.056,1038.38 533.389,1038.88 533.5,1039.5 Z"/>
  </g>
  <g>
    <path style="opacity:1" fill="#887767" d="M 206.5,922.5 C 206.961,928.932 207.961,935.265 209.5,941.5C 205.137,942.116 200.803,942.95 196.5,944C 195.941,944.725 195.608,945.558 195.5,946.5C 199.123,959.081 205.789,969.748 215.5,978.5C 212.5,980.333 209.5,982.167 206.5,984C 213.277,995.771 222.943,1004.44 235.5,1010C 233.316,1012.02 231.316,1014.18 229.5,1016.5C 229.977,1017.48 230.643,1018.31 231.5,1019C 245.552,1027.41 260.552,1033.57 276.5,1037.5C 268.972,1048.22 263.305,1059.89 259.5,1072.5C 253.702,1069.77 248.035,1066.77 242.5,1063.5C 244.749,1059.25 247.415,1055.25 250.5,1051.5C 240.881,1047.9 231.214,1044.4 221.5,1041C 214.615,1038.4 208.615,1034.57 203.5,1029.5C 205.316,1027.18 207.316,1025.02 209.5,1023C 197.055,1018.2 187.555,1010.04 181,998.5C 180.251,997.365 180.417,996.365 181.5,995.5C 184.329,994.253 186.995,992.753 189.5,991C 178.786,981.955 171.786,970.621 168.5,957C 172.931,955.091 177.598,953.924 182.5,953.5C 180.84,943.245 179.84,932.912 179.5,922.5C 188.5,922.5 197.5,922.5 206.5,922.5 Z"/>
  </g>
  <g>
    <path style="opacity:1" fill="#293b75" d="M 276.5,1037.5 C 293.886,1042.93 311.552,1047.26 329.5,1050.5C 319.988,1064.2 310.988,1078.2 302.5,1092.5C 287.737,1086.62 273.404,1079.95 259.5,1072.5C 263.305,1059.89 268.972,1048.22 276.5,1037.5 Z"/>
  </g>
  <g>
    <path style="opacity:1" fill="#bebebe" d="M 329.5,1050.5 C 344.32,1054.09 359.32,1056.76 374.5,1058.5C 454.815,1073.16 535.148,1073.16 615.5,1058.5C 630.593,1056.35 645.593,1053.68 660.5,1050.5C 669.657,1064.14 678.324,1078.14 686.5,1092.5C 657.48,1104.43 627.48,1113.6 596.5,1120C 587.117,1122.63 578.117,1126.13 569.5,1130.5C 546.718,1116.72 521.885,1110.06 495,1110.5C 467.85,1110.08 442.683,1116.74 419.5,1130.5C 410.883,1126.13 401.883,1122.63 392.5,1120C 361.605,1113.31 331.605,1104.14 302.5,1092.5C 310.988,1078.2 319.988,1064.2 329.5,1050.5 Z"/>
  </g>
  <g>
    <path style="opacity:1" fill="#fedeb3" d="M 569.5,1130.5 C 542.393,1143.29 517.393,1159.29 494.5,1178.5C 471.607,1159.29 446.607,1143.29 419.5,1130.5C 442.683,1116.74 467.85,1110.08 495,1110.5C 521.885,1110.06 546.718,1116.72 569.5,1130.5 Z"/>
  </g>
</svg>